<svg xmlns="http://www.w3.org/2000/svg" xmlns:xlink="http://www.w3.org/1999/xlink" width="158" zoomAndPan="magnify" viewBox="0 0 118.5 30.000001" height="40" preserveAspectRatio="xMidYMid meet" version="1.0"><defs><g/><clipPath id="0d1cd75372"><path d="M 11 1.335938 L 24 1.335938 L 24 22 L 11 22 Z M 11 1.335938 " clip-rule="nonzero"/></clipPath><clipPath id="374f3f31d6"><path d="M 12 4 L 33.011719 4 L 33.011719 18 L 12 18 Z M 12 4 " clip-rule="nonzero"/></clipPath><clipPath id="4f8879dbeb"><path d="M 4 7 L 18 7 L 18 26.847656 L 4 26.847656 Z M 4 7 " clip-rule="nonzero"/></clipPath></defs><path fill="#eb008b" d="M 8.636719 16.703125 C 7.222656 11.339844 9.003906 6.082031 12.746094 3.207031 L 13.539062 6.214844 C 10.601562 9.019531 9.292969 13.5625 10.511719 18.1875 C 11.339844 21.316406 13.175781 23.929688 15.519531 25.683594 C 12.292969 23.902344 9.691406 20.699219 8.636719 16.703125 Z M 8.636719 16.703125 " fill-opacity="1" fill-rule="evenodd"/><g clip-path="url(#0d1cd75372)"><path fill="#00adee" d="M 12.125 10.601562 C 14.039062 5.289062 18.5 1.777344 23.203125 1.347656 L 22.128906 4.324219 C 18.125 5.132812 14.457031 8.289062 12.808594 12.867188 C 11.691406 15.96875 11.699219 19.171875 12.609375 21.917969 C 10.996094 18.671875 10.703125 14.558594 12.125 10.601562 Z M 12.125 10.601562 " fill-opacity="1" fill-rule="evenodd"/></g><g clip-path="url(#374f3f31d6)"><path fill="#ffca05" d="M 18.675781 7.332031 C 23.265625 3.832031 28.917969 3.226562 33.011719 5.363281 L 30.4375 7.328125 C 26.699219 5.878906 21.902344 6.605469 17.945312 9.625 C 15.269531 11.664062 13.449219 14.394531 12.632812 17.21875 C 13.15625 13.59375 15.257812 9.9375 18.675781 7.332031 Z M 18.675781 7.332031 " fill-opacity="1" fill-rule="evenodd"/></g><g clip-path="url(#4f8879dbeb)"><path fill="#231f20" d="M 7.296875 21.285156 C 3.667969 16.960938 3.128906 11.535156 5.472656 7.53125 L 7.507812 9.957031 C 5.898438 13.597656 6.585938 18.199219 9.714844 21.929688 C 11.832031 24.453125 14.691406 26.128906 17.675781 26.839844 C 13.839844 26.433594 10 24.507812 7.296875 21.285156 Z M 7.296875 21.285156 " fill-opacity="1" fill-rule="evenodd"/></g><g fill="#0d1a42" fill-opacity="1"><g transform="translate(15.624536, 20.395225)"><g><path d="M 0.546875 0 L 0.546875 -6.03125 L 5.1875 -6.03125 L 5.1875 -4.953125 L 1.796875 -4.953125 L 1.796875 -3.578125 L 4.03125 -3.578125 L 4.03125 -2.515625 L 1.796875 -2.515625 L 1.796875 -1.09375 L 5.21875 -1.09375 L 5.21875 0 Z M 0.546875 0 "/></g></g></g><g fill="#0d1a42" fill-opacity="1"><g transform="translate(22.569197, 20.395225)"><g><path d="M 0.03125 -0.953125 L 0.734375 -1.859375 C 1.085938 -1.546875 1.425781 -1.316406 1.75 -1.171875 C 2.082031 -1.035156 2.425781 -0.96875 2.78125 -0.96875 C 3.15625 -0.96875 3.453125 -1.035156 3.671875 -1.171875 C 3.898438 -1.316406 4.015625 -1.503906 4.015625 -1.734375 C 4.015625 -1.941406 3.9375 -2.101562 3.78125 -2.21875 C 3.632812 -2.332031 3.382812 -2.414062 3.03125 -2.46875 L 1.828125 -2.6875 C 1.304688 -2.769531 0.910156 -2.945312 0.640625 -3.21875 C 0.378906 -3.5 0.25 -3.859375 0.25 -4.296875 C 0.25 -4.859375 0.460938 -5.300781 0.890625 -5.625 C 1.316406 -5.957031 1.894531 -6.125 2.625 -6.125 C 3.0625 -6.125 3.503906 -6.046875 3.953125 -5.890625 C 4.398438 -5.742188 4.789062 -5.539062 5.125 -5.28125 L 4.453125 -4.34375 C 4.128906 -4.59375 3.8125 -4.773438 3.5 -4.890625 C 3.1875 -5.015625 2.867188 -5.078125 2.546875 -5.078125 C 2.210938 -5.078125 1.941406 -5.015625 1.734375 -4.890625 C 1.535156 -4.765625 1.4375 -4.597656 1.4375 -4.390625 C 1.4375 -4.203125 1.503906 -4.054688 1.640625 -3.953125 C 1.773438 -3.847656 1.992188 -3.773438 2.296875 -3.734375 L 3.4375 -3.546875 C 4.039062 -3.441406 4.492188 -3.25 4.796875 -2.96875 C 5.097656 -2.6875 5.25 -2.3125 5.25 -1.84375 C 5.25 -1.257812 5.015625 -0.789062 4.546875 -0.4375 C 4.085938 -0.0820312 3.472656 0.09375 2.703125 0.09375 C 2.210938 0.09375 1.734375 0 1.265625 -0.1875 C 0.796875 -0.375 0.382812 -0.628906 0.03125 -0.953125 Z M 0.03125 -0.953125 "/></g></g></g><g fill="#0d1a42" fill-opacity="1"><g transform="translate(29.401712, 20.395225)"><g><path d="M 0.546875 0 L 0.546875 -6.03125 L 3.578125 -6.03125 C 3.867188 -6.03125 4.140625 -5.984375 4.390625 -5.890625 C 4.640625 -5.796875 4.851562 -5.664062 5.03125 -5.5 C 5.207031 -5.332031 5.34375 -5.128906 5.4375 -4.890625 C 5.539062 -4.660156 5.59375 -4.410156 5.59375 -4.140625 C 5.59375 -3.867188 5.539062 -3.617188 5.4375 -3.390625 C 5.34375 -3.160156 5.203125 -2.960938 5.015625 -2.796875 C 4.835938 -2.628906 4.625 -2.5 4.375 -2.40625 C 4.132812 -2.320312 3.867188 -2.28125 3.578125 -2.28125 L 1.796875 -2.28125 L 1.796875 0 Z M 3.4375 -4.953125 L 1.796875 -4.953125 L 1.796875 -3.3125 L 3.4375 -3.3125 C 3.707031 -3.3125 3.921875 -3.382812 4.078125 -3.53125 C 4.242188 -3.6875 4.328125 -3.882812 4.328125 -4.125 C 4.328125 -4.375 4.242188 -4.570312 4.078125 -4.71875 C 3.921875 -4.875 3.707031 -4.953125 3.4375 -4.953125 Z M 3.4375 -4.953125 "/></g></g></g><g fill="#0d1a42" fill-opacity="1"><g transform="translate(36.656928, 20.395225)"><g><path d="M -0.03125 0 L 2.453125 -6.03125 L 3.90625 -6.03125 L 6.34375 0 L 5 0 L 4.375 -1.59375 L 1.890625 -1.59375 L 1.265625 0 Z M 2.28125 -2.59375 L 4 -2.59375 L 3.140625 -4.8125 Z M 2.28125 -2.59375 "/></g></g></g><g fill="#0d1a42" fill-opacity="1"><g transform="translate(44.352091, 20.395225)"><g><path d="M 3.5625 -1.0625 C 3.875 -1.0625 4.164062 -1.128906 4.4375 -1.265625 C 4.71875 -1.398438 4.96875 -1.59375 5.1875 -1.84375 L 6 -1.03125 C 5.71875 -0.6875 5.351562 -0.410156 4.90625 -0.203125 C 4.457031 -0.00390625 4 0.09375 3.53125 0.09375 C 3.070312 0.09375 2.644531 0.015625 2.25 -0.140625 C 1.863281 -0.304688 1.523438 -0.523438 1.234375 -0.796875 C 0.941406 -1.078125 0.710938 -1.40625 0.546875 -1.78125 C 0.390625 -2.164062 0.3125 -2.578125 0.3125 -3.015625 C 0.3125 -3.453125 0.394531 -3.863281 0.5625 -4.25 C 0.726562 -4.632812 0.953125 -4.960938 1.234375 -5.234375 C 1.523438 -5.515625 1.867188 -5.734375 2.265625 -5.890625 C 2.660156 -6.046875 3.082031 -6.125 3.53125 -6.125 C 4.007812 -6.125 4.472656 -6.019531 4.921875 -5.8125 C 5.378906 -5.613281 5.75 -5.34375 6.03125 -5 L 5.1875 -4.171875 C 4.976562 -4.429688 4.726562 -4.628906 4.4375 -4.765625 C 4.15625 -4.910156 3.851562 -4.984375 3.53125 -4.984375 C 3.257812 -4.984375 3.003906 -4.929688 2.765625 -4.828125 C 2.523438 -4.734375 2.316406 -4.597656 2.140625 -4.421875 C 1.972656 -4.242188 1.835938 -4.035156 1.734375 -3.796875 C 1.640625 -3.554688 1.59375 -3.296875 1.59375 -3.015625 C 1.59375 -2.742188 1.640625 -2.488281 1.734375 -2.25 C 1.835938 -2.007812 1.976562 -1.800781 2.15625 -1.625 C 2.332031 -1.457031 2.539062 -1.320312 2.78125 -1.21875 C 3.019531 -1.113281 3.28125 -1.0625 3.5625 -1.0625 Z M 3.5625 -1.0625 "/></g></g></g><g fill="#0d1a42" fill-opacity="1"><g transform="translate(51.92648, 20.395225)"><g><path d="M 0.546875 0 L 0.546875 -6.03125 L 5.1875 -6.03125 L 5.1875 -4.953125 L 1.796875 -4.953125 L 1.796875 -3.578125 L 4.03125 -3.578125 L 4.03125 -2.515625 L 1.796875 -2.515625 L 1.796875 -1.09375 L 5.21875 -1.09375 L 5.21875 0 Z M 0.546875 0 "/></g></g></g><g fill="#0d1a42" fill-opacity="1"><g transform="translate(58.871139, 20.395225)"><g/></g></g><g fill="#0d1a42" fill-opacity="1"><g transform="translate(61.985657, 20.395225)"><g><path d="M 0.15625 -4.9375 L 0.15625 -6.03125 L 5.46875 -6.03125 L 5.46875 -4.9375 L 3.4375 -4.9375 L 3.4375 0 L 2.1875 0 L 2.1875 -4.9375 Z M 0.15625 -4.9375 "/></g></g></g><g fill="#0d1a42" fill-opacity="1"><g transform="translate(68.990701, 20.395225)"><g><path d="M 0.546875 0 L 0.546875 -6.03125 L 5.1875 -6.03125 L 5.1875 -4.953125 L 1.796875 -4.953125 L 1.796875 -3.578125 L 4.03125 -3.578125 L 4.03125 -2.515625 L 1.796875 -2.515625 L 1.796875 -1.09375 L 5.21875 -1.09375 L 5.21875 0 Z M 0.546875 0 "/></g></g></g><g fill="#0d1a42" fill-opacity="1"><g transform="translate(75.93536, 20.395225)"><g><path d="M 0.546875 0 L 0.546875 -6.03125 L 1.796875 -6.03125 L 1.796875 -1.109375 L 5.09375 -1.109375 L 5.09375 0 Z M 0.546875 0 "/></g></g></g><g fill="#0d1a42" fill-opacity="1"><g transform="translate(82.733377, 20.395225)"><g><path d="M 0.546875 0 L 0.546875 -6.03125 L 5.1875 -6.03125 L 5.1875 -4.953125 L 1.796875 -4.953125 L 1.796875 -3.578125 L 4.03125 -3.578125 L 4.03125 -2.515625 L 1.796875 -2.515625 L 1.796875 -1.09375 L 5.21875 -1.09375 L 5.21875 0 Z M 0.546875 0 "/></g></g></g><g fill="#0d1a42" fill-opacity="1"><g transform="translate(89.678036, 20.395225)"><g><path d="M 3.5625 -1.0625 C 3.875 -1.0625 4.164062 -1.128906 4.4375 -1.265625 C 4.71875 -1.398438 4.96875 -1.59375 5.1875 -1.84375 L 6 -1.03125 C 5.71875 -0.6875 5.351562 -0.410156 4.90625 -0.203125 C 4.457031 -0.00390625 4 0.09375 3.53125 0.09375 C 3.070312 0.09375 2.644531 0.015625 2.25 -0.140625 C 1.863281 -0.304688 1.523438 -0.523438 1.234375 -0.796875 C 0.941406 -1.078125 0.710938 -1.40625 0.546875 -1.78125 C 0.390625 -2.164062 0.3125 -2.578125 0.3125 -3.015625 C 0.3125 -3.453125 0.394531 -3.863281 0.5625 -4.25 C 0.726562 -4.632812 0.953125 -4.960938 1.234375 -5.234375 C 1.523438 -5.515625 1.867188 -5.734375 2.265625 -5.890625 C 2.660156 -6.046875 3.082031 -6.125 3.53125 -6.125 C 4.007812 -6.125 4.472656 -6.019531 4.921875 -5.8125 C 5.378906 -5.613281 5.75 -5.34375 6.03125 -5 L 5.1875 -4.171875 C 4.976562 -4.429688 4.726562 -4.628906 4.4375 -4.765625 C 4.15625 -4.910156 3.851562 -4.984375 3.53125 -4.984375 C 3.257812 -4.984375 3.003906 -4.929688 2.765625 -4.828125 C 2.523438 -4.734375 2.316406 -4.597656 2.140625 -4.421875 C 1.972656 -4.242188 1.835938 -4.035156 1.734375 -3.796875 C 1.640625 -3.554688 1.59375 -3.296875 1.59375 -3.015625 C 1.59375 -2.742188 1.640625 -2.488281 1.734375 -2.25 C 1.835938 -2.007812 1.976562 -1.800781 2.15625 -1.625 C 2.332031 -1.457031 2.539062 -1.320312 2.78125 -1.21875 C 3.019531 -1.113281 3.28125 -1.0625 3.5625 -1.0625 Z M 3.5625 -1.0625 "/></g></g></g><g fill="#0d1a42" fill-opacity="1"><g transform="translate(97.252425, 20.395225)"><g><path d="M 6.703125 -3.015625 C 6.703125 -2.585938 6.617188 -2.179688 6.453125 -1.796875 C 6.285156 -1.410156 6.054688 -1.078125 5.765625 -0.796875 C 5.484375 -0.523438 5.144531 -0.304688 4.75 -0.140625 C 4.363281 0.015625 3.945312 0.09375 3.5 0.09375 C 3.0625 0.09375 2.644531 0.015625 2.25 -0.140625 C 1.863281 -0.304688 1.523438 -0.523438 1.234375 -0.796875 C 0.953125 -1.078125 0.726562 -1.410156 0.5625 -1.796875 C 0.394531 -2.179688 0.3125 -2.585938 0.3125 -3.015625 C 0.3125 -3.453125 0.394531 -3.859375 0.5625 -4.234375 C 0.726562 -4.617188 0.953125 -4.953125 1.234375 -5.234375 C 1.523438 -5.515625 1.863281 -5.734375 2.25 -5.890625 C 2.644531 -6.046875 3.0625 -6.125 3.5 -6.125 C 3.945312 -6.125 4.363281 -6.046875 4.75 -5.890625 C 5.144531 -5.734375 5.484375 -5.515625 5.765625 -5.234375 C 6.054688 -4.953125 6.285156 -4.617188 6.453125 -4.234375 C 6.617188 -3.859375 6.703125 -3.453125 6.703125 -3.015625 Z M 5.421875 -3.015625 C 5.421875 -3.296875 5.367188 -3.554688 5.265625 -3.796875 C 5.171875 -4.035156 5.035156 -4.242188 4.859375 -4.421875 C 4.691406 -4.597656 4.488281 -4.734375 4.25 -4.828125 C 4.019531 -4.929688 3.769531 -4.984375 3.5 -4.984375 C 3.226562 -4.984375 2.972656 -4.929688 2.734375 -4.828125 C 2.503906 -4.734375 2.304688 -4.597656 2.140625 -4.421875 C 1.972656 -4.242188 1.835938 -4.035156 1.734375 -3.796875 C 1.640625 -3.554688 1.59375 -3.296875 1.59375 -3.015625 C 1.59375 -2.742188 1.640625 -2.484375 1.734375 -2.234375 C 1.835938 -1.992188 1.972656 -1.785156 2.140625 -1.609375 C 2.304688 -1.441406 2.503906 -1.304688 2.734375 -1.203125 C 2.972656 -1.097656 3.226562 -1.046875 3.5 -1.046875 C 3.769531 -1.046875 4.019531 -1.097656 4.25 -1.203125 C 4.488281 -1.304688 4.691406 -1.441406 4.859375 -1.609375 C 5.035156 -1.785156 5.171875 -1.992188 5.265625 -2.234375 C 5.367188 -2.484375 5.421875 -2.742188 5.421875 -3.015625 Z M 5.421875 -3.015625 "/></g></g></g><g fill="#0d1a42" fill-opacity="1"><g transform="translate(105.646327, 20.395225)"><g><path d="M 3.78125 -0.4375 L 1.703125 -4.4375 L 1.703125 0 L 0.546875 0 L 0.546875 -6.03125 L 2.140625 -6.03125 L 3.796875 -2.796875 L 5.453125 -6.03125 L 7.0625 -6.03125 L 7.0625 0 L 5.875 0 L 5.875 -4.4375 Z M 3.78125 -0.4375 "/></g></g></g><g fill="#0d1a42" fill-opacity="1"><g transform="translate(20.698306, 27.081533)"><g><path d="M 0.15625 0 L 0.15625 -1.765625 L 0.53125 -1.765625 L 0.53125 0 Z M 0.15625 0 "/></g></g></g><g fill="#0d1a42" fill-opacity="1"><g transform="translate(23.406992, 27.081533)"><g><path d="M 1.109375 -0.125 L 0.5 -1.296875 L 0.5 0 L 0.15625 0 L 0.15625 -1.765625 L 0.625 -1.765625 L 1.109375 -0.8125 L 1.609375 -1.765625 L 2.078125 -1.765625 L 2.078125 0 L 1.71875 0 L 1.71875 -1.296875 Z M 1.109375 -0.125 "/></g></g></g><g fill="#0d1a42" fill-opacity="1"><g transform="translate(27.65701, 27.081533)"><g><path d="M 0.15625 0 L 0.15625 -1.765625 L 1.046875 -1.765625 C 1.128906 -1.765625 1.207031 -1.75 1.28125 -1.71875 C 1.351562 -1.695312 1.414062 -1.660156 1.46875 -1.609375 C 1.519531 -1.566406 1.5625 -1.507812 1.59375 -1.4375 C 1.625 -1.375 1.640625 -1.300781 1.640625 -1.21875 C 1.640625 -1.132812 1.625 -1.054688 1.59375 -0.984375 C 1.5625 -0.921875 1.519531 -0.863281 1.46875 -0.8125 C 1.414062 -0.769531 1.351562 -0.734375 1.28125 -0.703125 C 1.207031 -0.679688 1.128906 -0.671875 1.046875 -0.671875 L 0.53125 -0.671875 L 0.53125 0 Z M 1 -1.453125 L 0.53125 -1.453125 L 0.53125 -0.96875 L 1 -0.96875 C 1.082031 -0.96875 1.144531 -0.988281 1.1875 -1.03125 C 1.238281 -1.082031 1.265625 -1.144531 1.265625 -1.21875 C 1.265625 -1.289062 1.238281 -1.347656 1.1875 -1.390625 C 1.144531 -1.429688 1.082031 -1.453125 1 -1.453125 Z M 1 -1.453125 "/></g></g></g><g fill="#0d1a42" fill-opacity="1"><g transform="translate(31.399147, 27.081533)"><g><path d="M 0.15625 0 L 0.15625 -1.765625 L 1.03125 -1.765625 C 1.113281 -1.765625 1.191406 -1.75 1.265625 -1.71875 C 1.347656 -1.695312 1.414062 -1.660156 1.46875 -1.609375 C 1.519531 -1.566406 1.5625 -1.507812 1.59375 -1.4375 C 1.625 -1.375 1.640625 -1.300781 1.640625 -1.21875 C 1.640625 -1.113281 1.609375 -1.015625 1.546875 -0.921875 C 1.484375 -0.835938 1.398438 -0.773438 1.296875 -0.734375 L 1.6875 0 L 1.265625 0 L 0.921875 -0.671875 L 0.53125 -0.671875 L 0.53125 0 Z M 1 -1.453125 L 0.53125 -1.453125 L 0.53125 -0.984375 L 1 -0.984375 C 1.070312 -0.984375 1.132812 -1.003906 1.1875 -1.046875 C 1.238281 -1.085938 1.265625 -1.144531 1.265625 -1.21875 C 1.265625 -1.289062 1.238281 -1.347656 1.1875 -1.390625 C 1.132812 -1.429688 1.070312 -1.453125 1 -1.453125 Z M 1 -1.453125 "/></g></g></g><g fill="#0d1a42" fill-opacity="1"><g transform="translate(35.13623, 27.081533)"><g><path d="M 0.15625 0 L 0.15625 -1.765625 L 1.515625 -1.765625 L 1.515625 -1.453125 L 0.53125 -1.453125 L 0.53125 -1.046875 L 1.1875 -1.046875 L 1.1875 -0.734375 L 0.53125 -0.734375 L 0.53125 -0.3125 L 1.53125 -0.3125 L 1.53125 0 Z M 0.15625 0 "/></g></g></g><g fill="#0d1a42" fill-opacity="1"><g transform="translate(38.787402, 27.081533)"><g><path d="M 0 -0.28125 L 0.21875 -0.546875 C 0.320312 -0.453125 0.421875 -0.382812 0.515625 -0.34375 C 0.609375 -0.300781 0.707031 -0.28125 0.8125 -0.28125 C 0.925781 -0.28125 1.015625 -0.300781 1.078125 -0.34375 C 1.140625 -0.382812 1.171875 -0.441406 1.171875 -0.515625 C 1.171875 -0.566406 1.148438 -0.609375 1.109375 -0.640625 C 1.066406 -0.679688 0.992188 -0.707031 0.890625 -0.71875 L 0.53125 -0.78125 C 0.382812 -0.8125 0.269531 -0.863281 0.1875 -0.9375 C 0.113281 -1.019531 0.078125 -1.128906 0.078125 -1.265625 C 0.078125 -1.429688 0.140625 -1.5625 0.265625 -1.65625 C 0.390625 -1.75 0.554688 -1.796875 0.765625 -1.796875 C 0.898438 -1.796875 1.03125 -1.773438 1.15625 -1.734375 C 1.289062 -1.691406 1.40625 -1.628906 1.5 -1.546875 L 1.3125 -1.28125 C 1.21875 -1.351562 1.125 -1.40625 1.03125 -1.4375 C 0.9375 -1.46875 0.84375 -1.484375 0.75 -1.484375 C 0.644531 -1.484375 0.5625 -1.460938 0.5 -1.421875 C 0.445312 -1.390625 0.421875 -1.34375 0.421875 -1.28125 C 0.421875 -1.226562 0.441406 -1.1875 0.484375 -1.15625 C 0.523438 -1.125 0.585938 -1.101562 0.671875 -1.09375 L 1.015625 -1.046875 C 1.179688 -1.015625 1.304688 -0.957031 1.390625 -0.875 C 1.484375 -0.789062 1.53125 -0.679688 1.53125 -0.546875 C 1.53125 -0.367188 1.460938 -0.226562 1.328125 -0.125 C 1.191406 -0.0195312 1.015625 0.03125 0.796875 0.03125 C 0.648438 0.03125 0.507812 0.00390625 0.375 -0.046875 C 0.238281 -0.109375 0.113281 -0.1875 0 -0.28125 Z M 0 -0.28125 "/></g></g></g><g fill="#0d1a42" fill-opacity="1"><g transform="translate(42.405727, 27.081533)"><g><path d="M 0 -0.28125 L 0.21875 -0.546875 C 0.320312 -0.453125 0.421875 -0.382812 0.515625 -0.34375 C 0.609375 -0.300781 0.707031 -0.28125 0.8125 -0.28125 C 0.925781 -0.28125 1.015625 -0.300781 1.078125 -0.34375 C 1.140625 -0.382812 1.171875 -0.441406 1.171875 -0.515625 C 1.171875 -0.566406 1.148438 -0.609375 1.109375 -0.640625 C 1.066406 -0.679688 0.992188 -0.707031 0.890625 -0.71875 L 0.53125 -0.78125 C 0.382812 -0.8125 0.269531 -0.863281 0.1875 -0.9375 C 0.113281 -1.019531 0.078125 -1.128906 0.078125 -1.265625 C 0.078125 -1.429688 0.140625 -1.5625 0.265625 -1.65625 C 0.390625 -1.75 0.554688 -1.796875 0.765625 -1.796875 C 0.898438 -1.796875 1.03125 -1.773438 1.15625 -1.734375 C 1.289062 -1.691406 1.40625 -1.628906 1.5 -1.546875 L 1.3125 -1.28125 C 1.21875 -1.351562 1.125 -1.40625 1.03125 -1.4375 C 0.9375 -1.46875 0.84375 -1.484375 0.75 -1.484375 C 0.644531 -1.484375 0.5625 -1.460938 0.5 -1.421875 C 0.445312 -1.390625 0.421875 -1.34375 0.421875 -1.28125 C 0.421875 -1.226562 0.441406 -1.1875 0.484375 -1.15625 C 0.523438 -1.125 0.585938 -1.101562 0.671875 -1.09375 L 1.015625 -1.046875 C 1.179688 -1.015625 1.304688 -0.957031 1.390625 -0.875 C 1.484375 -0.789062 1.53125 -0.679688 1.53125 -0.546875 C 1.53125 -0.367188 1.460938 -0.226562 1.328125 -0.125 C 1.191406 -0.0195312 1.015625 0.03125 0.796875 0.03125 C 0.648438 0.03125 0.507812 0.00390625 0.375 -0.046875 C 0.238281 -0.109375 0.113281 -0.1875 0 -0.28125 Z M 0 -0.28125 "/></g></g></g><g fill="#0d1a42" fill-opacity="1"><g transform="translate(46.024053, 27.081533)"><g><path d="M 0.15625 0 L 0.15625 -1.765625 L 0.53125 -1.765625 L 0.53125 0 Z M 0.15625 0 "/></g></g></g><g fill="#0d1a42" fill-opacity="1"><g transform="translate(48.732741, 27.081533)"><g><path d="M 1.96875 -0.890625 C 1.96875 -0.765625 1.941406 -0.644531 1.890625 -0.53125 C 1.835938 -0.414062 1.769531 -0.316406 1.6875 -0.234375 C 1.601562 -0.148438 1.503906 -0.0820312 1.390625 -0.03125 C 1.273438 0.0078125 1.15625 0.03125 1.03125 0.03125 C 0.894531 0.03125 0.769531 0.0078125 0.65625 -0.03125 C 0.539062 -0.0820312 0.441406 -0.148438 0.359375 -0.234375 C 0.273438 -0.316406 0.207031 -0.414062 0.15625 -0.53125 C 0.113281 -0.644531 0.09375 -0.765625 0.09375 -0.890625 C 0.09375 -1.015625 0.113281 -1.128906 0.15625 -1.234375 C 0.207031 -1.347656 0.273438 -1.445312 0.359375 -1.53125 C 0.441406 -1.613281 0.539062 -1.675781 0.65625 -1.71875 C 0.769531 -1.769531 0.894531 -1.796875 1.03125 -1.796875 C 1.15625 -1.796875 1.273438 -1.769531 1.390625 -1.71875 C 1.503906 -1.675781 1.601562 -1.613281 1.6875 -1.53125 C 1.769531 -1.445312 1.835938 -1.347656 1.890625 -1.234375 C 1.941406 -1.128906 1.96875 -1.015625 1.96875 -0.890625 Z M 1.59375 -0.890625 C 1.59375 -0.972656 1.578125 -1.046875 1.546875 -1.109375 C 1.515625 -1.179688 1.472656 -1.242188 1.421875 -1.296875 C 1.378906 -1.347656 1.320312 -1.390625 1.25 -1.421875 C 1.175781 -1.453125 1.101562 -1.46875 1.03125 -1.46875 C 0.945312 -1.46875 0.867188 -1.453125 0.796875 -1.421875 C 0.734375 -1.390625 0.675781 -1.347656 0.625 -1.296875 C 0.570312 -1.242188 0.53125 -1.179688 0.5 -1.109375 C 0.476562 -1.046875 0.46875 -0.972656 0.46875 -0.890625 C 0.46875 -0.804688 0.476562 -0.726562 0.5 -0.65625 C 0.53125 -0.582031 0.570312 -0.519531 0.625 -0.46875 C 0.675781 -0.414062 0.734375 -0.375 0.796875 -0.34375 C 0.867188 -0.320312 0.945312 -0.3125 1.03125 -0.3125 C 1.101562 -0.3125 1.175781 -0.320312 1.25 -0.34375 C 1.320312 -0.375 1.378906 -0.414062 1.421875 -0.46875 C 1.472656 -0.519531 1.515625 -0.582031 1.546875 -0.65625 C 1.578125 -0.726562 1.59375 -0.804688 1.59375 -0.890625 Z M 1.59375 -0.890625 "/></g></g></g><g fill="#0d1a42" fill-opacity="1"><g transform="translate(52.808414, 27.081533)"><g><path d="M 0.15625 -1.765625 L 0.515625 -1.765625 L 1.390625 -0.625 L 1.390625 -1.765625 L 1.734375 -1.765625 L 1.734375 0 L 1.40625 0 L 0.5 -1.1875 L 0.5 0 L 0.15625 0 Z M 0.15625 -1.765625 "/></g></g></g><g fill="#0d1a42" fill-opacity="1"><g transform="translate(56.722373, 27.081533)"><g/></g></g><g fill="#0d1a42" fill-opacity="1"><g transform="translate(59.25166, 27.081533)"><g><path d="M 0.15625 0 L 0.15625 -1.765625 L 1.515625 -1.765625 L 1.515625 -1.453125 L 0.53125 -1.453125 L 0.53125 -1.046875 L 1.1875 -1.046875 L 1.1875 -0.734375 L 0.53125 -0.734375 L 0.53125 -0.3125 L 1.53125 -0.3125 L 1.53125 0 Z M 0.15625 0 "/></g></g></g><g fill="#0d1a42" fill-opacity="1"><g transform="translate(62.902833, 27.081533)"><g><path d="M 0.046875 -1.453125 L 0.046875 -1.765625 L 1.609375 -1.765625 L 1.609375 -1.453125 L 1.015625 -1.453125 L 1.015625 0 L 0.640625 0 L 0.640625 -1.453125 Z M 0.046875 -1.453125 "/></g></g></g><g fill="#0d1a42" fill-opacity="1"><g transform="translate(66.571694, 27.081533)"><g/></g></g><g fill="#0d1a42" fill-opacity="1"><g transform="translate(69.10098, 27.081533)"><g><path d="M 0.046875 -1.453125 L 0.046875 -1.765625 L 1.609375 -1.765625 L 1.609375 -1.453125 L 1.015625 -1.453125 L 1.015625 0 L 0.640625 0 L 0.640625 -1.453125 Z M 0.046875 -1.453125 "/></g></g></g><g fill="#0d1a42" fill-opacity="1"><g transform="translate(72.769841, 27.081533)"><g><path d="M 0.15625 0 L 0.15625 -1.765625 L 1.515625 -1.765625 L 1.515625 -1.453125 L 0.53125 -1.453125 L 0.53125 -1.046875 L 1.1875 -1.046875 L 1.1875 -0.734375 L 0.53125 -0.734375 L 0.53125 -0.3125 L 1.53125 -0.3125 L 1.53125 0 Z M 0.15625 0 "/></g></g></g><g fill="#0d1a42" fill-opacity="1"><g transform="translate(76.421014, 27.081533)"><g><path d="M 1.046875 -0.3125 C 1.140625 -0.3125 1.222656 -0.332031 1.296875 -0.375 C 1.378906 -0.414062 1.453125 -0.472656 1.515625 -0.546875 L 1.765625 -0.296875 C 1.679688 -0.203125 1.570312 -0.125 1.4375 -0.0625 C 1.3125 0 1.175781 0.03125 1.03125 0.03125 C 0.894531 0.03125 0.769531 0.0078125 0.65625 -0.03125 C 0.539062 -0.0820312 0.441406 -0.148438 0.359375 -0.234375 C 0.273438 -0.316406 0.207031 -0.410156 0.15625 -0.515625 C 0.113281 -0.628906 0.09375 -0.753906 0.09375 -0.890625 C 0.09375 -1.015625 0.113281 -1.132812 0.15625 -1.25 C 0.207031 -1.363281 0.273438 -1.457031 0.359375 -1.53125 C 0.441406 -1.613281 0.539062 -1.675781 0.65625 -1.71875 C 0.78125 -1.769531 0.90625 -1.796875 1.03125 -1.796875 C 1.175781 -1.796875 1.3125 -1.765625 1.4375 -1.703125 C 1.570312 -1.648438 1.679688 -1.570312 1.765625 -1.46875 L 1.53125 -1.21875 C 1.46875 -1.300781 1.390625 -1.363281 1.296875 -1.40625 C 1.210938 -1.445312 1.125 -1.46875 1.03125 -1.46875 C 0.957031 -1.46875 0.882812 -1.453125 0.8125 -1.421875 C 0.738281 -1.390625 0.675781 -1.347656 0.625 -1.296875 C 0.570312 -1.242188 0.53125 -1.179688 0.5 -1.109375 C 0.476562 -1.046875 0.46875 -0.972656 0.46875 -0.890625 C 0.46875 -0.804688 0.484375 -0.726562 0.515625 -0.65625 C 0.546875 -0.582031 0.585938 -0.519531 0.640625 -0.46875 C 0.691406 -0.425781 0.75 -0.390625 0.8125 -0.359375 C 0.882812 -0.328125 0.960938 -0.3125 1.046875 -0.3125 Z M 1.046875 -0.3125 "/></g></g></g><g fill="#0d1a42" fill-opacity="1"><g transform="translate(80.256642, 27.081533)"><g><path d="M 0.15625 0 L 0.15625 -1.765625 L 0.53125 -1.765625 L 0.53125 -1.0625 L 1.34375 -1.0625 L 1.34375 -1.765625 L 1.703125 -1.765625 L 1.703125 0 L 1.34375 0 L 1.34375 -0.71875 L 0.53125 -0.71875 L 0.53125 0 Z M 0.15625 0 "/></g></g></g><g fill="#0d1a42" fill-opacity="1"><g transform="translate(84.145328, 27.081533)"><g><path d="M 0.15625 -1.765625 L 0.515625 -1.765625 L 1.390625 -0.625 L 1.390625 -1.765625 L 1.734375 -1.765625 L 1.734375 0 L 1.40625 0 L 0.5 -1.1875 L 0.5 0 L 0.15625 0 Z M 0.15625 -1.765625 "/></g></g></g><g fill="#0d1a42" fill-opacity="1"><g transform="translate(88.059288, 27.081533)"><g><path d="M 1.96875 -0.890625 C 1.96875 -0.765625 1.941406 -0.644531 1.890625 -0.53125 C 1.835938 -0.414062 1.769531 -0.316406 1.6875 -0.234375 C 1.601562 -0.148438 1.503906 -0.0820312 1.390625 -0.03125 C 1.273438 0.0078125 1.15625 0.03125 1.03125 0.03125 C 0.894531 0.03125 0.769531 0.0078125 0.65625 -0.03125 C 0.539062 -0.0820312 0.441406 -0.148438 0.359375 -0.234375 C 0.273438 -0.316406 0.207031 -0.414062 0.15625 -0.53125 C 0.113281 -0.644531 0.09375 -0.765625 0.09375 -0.890625 C 0.09375 -1.015625 0.113281 -1.128906 0.15625 -1.234375 C 0.207031 -1.347656 0.273438 -1.445312 0.359375 -1.53125 C 0.441406 -1.613281 0.539062 -1.675781 0.65625 -1.71875 C 0.769531 -1.769531 0.894531 -1.796875 1.03125 -1.796875 C 1.15625 -1.796875 1.273438 -1.769531 1.390625 -1.71875 C 1.503906 -1.675781 1.601562 -1.613281 1.6875 -1.53125 C 1.769531 -1.445312 1.835938 -1.347656 1.890625 -1.234375 C 1.941406 -1.128906 1.96875 -1.015625 1.96875 -0.890625 Z M 1.59375 -0.890625 C 1.59375 -0.972656 1.578125 -1.046875 1.546875 -1.109375 C 1.515625 -1.179688 1.472656 -1.242188 1.421875 -1.296875 C 1.378906 -1.347656 1.320312 -1.390625 1.25 -1.421875 C 1.175781 -1.453125 1.101562 -1.46875 1.03125 -1.46875 C 0.945312 -1.46875 0.867188 -1.453125 0.796875 -1.421875 C 0.734375 -1.390625 0.675781 -1.347656 0.625 -1.296875 C 0.570312 -1.242188 0.53125 -1.179688 0.5 -1.109375 C 0.476562 -1.046875 0.46875 -0.972656 0.46875 -0.890625 C 0.46875 -0.804688 0.476562 -0.726562 0.5 -0.65625 C 0.53125 -0.582031 0.570312 -0.519531 0.625 -0.46875 C 0.675781 -0.414062 0.734375 -0.375 0.796875 -0.34375 C 0.867188 -0.320312 0.945312 -0.3125 1.03125 -0.3125 C 1.101562 -0.3125 1.175781 -0.320312 1.25 -0.34375 C 1.320312 -0.375 1.378906 -0.414062 1.421875 -0.46875 C 1.472656 -0.519531 1.515625 -0.582031 1.546875 -0.65625 C 1.578125 -0.726562 1.59375 -0.804688 1.59375 -0.890625 Z M 1.59375 -0.890625 "/></g></g></g><g fill="#0d1a42" fill-opacity="1"><g transform="translate(92.13496, 27.081533)"><g><path d="M 0.15625 0 L 0.15625 -1.765625 L 0.53125 -1.765625 L 0.53125 -0.328125 L 1.5 -0.328125 L 1.5 0 Z M 0.15625 0 "/></g></g></g><g fill="#0d1a42" fill-opacity="1"><g transform="translate(95.743177, 27.081533)"><g><path d="M 1.96875 -0.890625 C 1.96875 -0.765625 1.941406 -0.644531 1.890625 -0.53125 C 1.835938 -0.414062 1.769531 -0.316406 1.6875 -0.234375 C 1.601562 -0.148438 1.503906 -0.0820312 1.390625 -0.03125 C 1.273438 0.0078125 1.15625 0.03125 1.03125 0.03125 C 0.894531 0.03125 0.769531 0.0078125 0.65625 -0.03125 C 0.539062 -0.0820312 0.441406 -0.148438 0.359375 -0.234375 C 0.273438 -0.316406 0.207031 -0.414062 0.15625 -0.53125 C 0.113281 -0.644531 0.09375 -0.765625 0.09375 -0.890625 C 0.09375 -1.015625 0.113281 -1.128906 0.15625 -1.234375 C 0.207031 -1.347656 0.273438 -1.445312 0.359375 -1.53125 C 0.441406 -1.613281 0.539062 -1.675781 0.65625 -1.71875 C 0.769531 -1.769531 0.894531 -1.796875 1.03125 -1.796875 C 1.15625 -1.796875 1.273438 -1.769531 1.390625 -1.71875 C 1.503906 -1.675781 1.601562 -1.613281 1.6875 -1.53125 C 1.769531 -1.445312 1.835938 -1.347656 1.890625 -1.234375 C 1.941406 -1.128906 1.96875 -1.015625 1.96875 -0.890625 Z M 1.59375 -0.890625 C 1.59375 -0.972656 1.578125 -1.046875 1.546875 -1.109375 C 1.515625 -1.179688 1.472656 -1.242188 1.421875 -1.296875 C 1.378906 -1.347656 1.320312 -1.390625 1.25 -1.421875 C 1.175781 -1.453125 1.101562 -1.46875 1.03125 -1.46875 C 0.945312 -1.46875 0.867188 -1.453125 0.796875 -1.421875 C 0.734375 -1.390625 0.675781 -1.347656 0.625 -1.296875 C 0.570312 -1.242188 0.53125 -1.179688 0.5 -1.109375 C 0.476562 -1.046875 0.46875 -0.972656 0.46875 -0.890625 C 0.46875 -0.804688 0.476562 -0.726562 0.5 -0.65625 C 0.53125 -0.582031 0.570312 -0.519531 0.625 -0.46875 C 0.675781 -0.414062 0.734375 -0.375 0.796875 -0.34375 C 0.867188 -0.320312 0.945312 -0.3125 1.03125 -0.3125 C 1.101562 -0.3125 1.175781 -0.320312 1.25 -0.34375 C 1.320312 -0.375 1.378906 -0.414062 1.421875 -0.46875 C 1.472656 -0.519531 1.515625 -0.582031 1.546875 -0.65625 C 1.578125 -0.726562 1.59375 -0.804688 1.59375 -0.890625 Z M 1.59375 -0.890625 "/></g></g></g><g fill="#0d1a42" fill-opacity="1"><g transform="translate(99.818849, 27.081533)"><g><path d="M 1.921875 -0.890625 C 1.921875 -0.753906 1.894531 -0.628906 1.84375 -0.515625 C 1.800781 -0.410156 1.738281 -0.316406 1.65625 -0.234375 C 1.582031 -0.148438 1.488281 -0.0820312 1.375 -0.03125 C 1.269531 0.0078125 1.15625 0.03125 1.03125 0.03125 C 0.894531 0.03125 0.769531 0.0078125 0.65625 -0.03125 C 0.539062 -0.0820312 0.441406 -0.148438 0.359375 -0.234375 C 0.273438 -0.316406 0.207031 -0.410156 0.15625 -0.515625 C 0.113281 -0.628906 0.09375 -0.753906 0.09375 -0.890625 C 0.09375 -1.015625 0.113281 -1.128906 0.15625 -1.234375 C 0.207031 -1.347656 0.273438 -1.445312 0.359375 -1.53125 C 0.441406 -1.613281 0.539062 -1.675781 0.65625 -1.71875 C 0.769531 -1.769531 0.894531 -1.796875 1.03125 -1.796875 C 1.175781 -1.796875 1.3125 -1.765625 1.4375 -1.703125 C 1.570312 -1.648438 1.679688 -1.570312 1.765625 -1.46875 L 1.5 -1.234375 C 1.4375 -1.304688 1.363281 -1.363281 1.28125 -1.40625 C 1.207031 -1.445312 1.125 -1.46875 1.03125 -1.46875 C 0.945312 -1.46875 0.867188 -1.453125 0.796875 -1.421875 C 0.734375 -1.390625 0.675781 -1.347656 0.625 -1.296875 C 0.570312 -1.242188 0.53125 -1.179688 0.5 -1.109375 C 0.476562 -1.046875 0.46875 -0.972656 0.46875 -0.890625 C 0.46875 -0.804688 0.476562 -0.726562 0.5 -0.65625 C 0.53125 -0.582031 0.570312 -0.519531 0.625 -0.46875 C 0.675781 -0.414062 0.738281 -0.375 0.8125 -0.34375 C 0.882812 -0.320312 0.957031 -0.3125 1.03125 -0.3125 C 1.15625 -0.3125 1.265625 -0.34375 1.359375 -0.40625 C 1.453125 -0.476562 1.507812 -0.566406 1.53125 -0.671875 L 1 -0.671875 L 1 -1 L 1.921875 -1 Z M 1.921875 -0.890625 "/></g></g></g><g fill="#0d1a42" fill-opacity="1"><g transform="translate(103.846508, 27.081533)"><g><path d="M 0.15625 0 L 0.15625 -1.765625 L 0.53125 -1.765625 L 0.53125 0 Z M 0.15625 0 "/></g></g></g><g fill="#0d1a42" fill-opacity="1"><g transform="translate(106.555192, 27.081533)"><g><path d="M 0.15625 0 L 0.15625 -1.765625 L 1.515625 -1.765625 L 1.515625 -1.453125 L 0.53125 -1.453125 L 0.53125 -1.046875 L 1.1875 -1.046875 L 1.1875 -0.734375 L 0.53125 -0.734375 L 0.53125 -0.3125 L 1.53125 -0.3125 L 1.53125 0 Z M 0.15625 0 "/></g></g></g></svg>