<svg xmlns="http://www.w3.org/2000/svg" xmlns:xlink="http://www.w3.org/1999/xlink" width="800" zoomAndPan="magnify" viewBox="0 0 600 374.999991" height="500" preserveAspectRatio="xMidYMid meet" version="1.0"><defs><g/><clipPath id="c2d412faa3"><path d="M 50 93.683594 L 114 93.683594 L 114 202 L 50 202 Z M 50 93.683594 " clip-rule="nonzero"/></clipPath><clipPath id="a06d9ccdfe"><path d="M 58 108 L 165.644531 108 L 165.644531 178 L 58 178 Z M 58 108 " clip-rule="nonzero"/></clipPath><clipPath id="de12d84a89"><path d="M 13 126 L 85 126 L 85 227.933594 L 13 227.933594 Z M 13 126 " clip-rule="nonzero"/></clipPath></defs><path fill="#eb008b" d="M 37.1875 174.554688 C 29.730469 146.328125 39.113281 118.644531 58.84375 103.515625 L 63.023438 119.347656 C 47.53125 134.117188 40.644531 158.027344 47.074219 182.363281 C 51.421875 198.835938 61.101562 212.589844 73.460938 221.824219 C 56.453125 212.433594 42.738281 195.578125 37.1875 174.554688 Z M 37.1875 174.554688 " fill-opacity="1" fill-rule="evenodd"/><g clip-path="url(#c2d412faa3)"><path fill="#00adee" d="M 55.574219 142.441406 C 65.652344 114.484375 89.171875 96.003906 113.949219 93.722656 L 108.292969 109.402344 C 87.183594 113.648438 67.863281 130.261719 59.171875 154.367188 C 53.289062 170.679688 53.316406 187.539062 58.121094 201.996094 C 49.609375 184.917969 48.066406 163.261719 55.574219 142.441406 Z M 55.574219 142.441406 " fill-opacity="1" fill-rule="evenodd"/></g><g clip-path="url(#a06d9ccdfe)"><path fill="#ffca05" d="M 90.097656 125.230469 C 114.28125 106.8125 144.066406 103.621094 165.644531 114.878906 L 152.078125 125.207031 C 132.378906 117.570312 107.101562 121.414062 86.246094 137.292969 C 72.132812 148.039062 62.546875 162.394531 58.238281 177.257812 C 61.007812 158.191406 72.085938 138.945312 90.097656 125.230469 Z M 90.097656 125.230469 " fill-opacity="1" fill-rule="evenodd"/></g><g clip-path="url(#de12d84a89)"><path fill="#231f20" d="M 30.113281 198.675781 C 10.988281 175.914062 8.144531 147.351562 20.507812 126.285156 L 31.234375 139.050781 C 22.757812 158.210938 26.375 182.425781 42.863281 202.050781 C 54.023438 215.335938 69.101562 224.164062 84.8125 227.902344 C 64.605469 225.761719 44.359375 215.628906 30.113281 198.675781 Z M 30.113281 198.675781 " fill-opacity="1" fill-rule="evenodd"/></g><g fill="#0d1a42" fill-opacity="1"><g transform="translate(74.041437, 194.175958)"><g><path d="M 2.859375 0 L 2.859375 -31.84375 L 27.34375 -31.84375 L 27.34375 -26.109375 L 9.453125 -26.109375 L 9.453125 -18.828125 L 21.234375 -18.828125 L 21.234375 -13.28125 L 9.453125 -13.28125 L 9.453125 -5.734375 L 27.515625 -5.734375 L 27.515625 0 Z M 2.859375 0 "/></g></g></g><g fill="#0d1a42" fill-opacity="1"><g transform="translate(110.659616, 194.175958)"><g><path d="M 0.140625 -5.046875 L 3.90625 -9.78125 C 5.757812 -8.175781 7.539062 -7 9.25 -6.25 C 10.96875 -5.507812 12.78125 -5.140625 14.6875 -5.140625 C 16.65625 -5.140625 18.234375 -5.503906 19.421875 -6.234375 C 20.609375 -6.960938 21.203125 -7.929688 21.203125 -9.140625 C 21.203125 -10.234375 20.796875 -11.082031 19.984375 -11.6875 C 19.179688 -12.289062 17.84375 -12.742188 15.96875 -13.046875 L 9.640625 -14.140625 C 6.910156 -14.597656 4.835938 -15.550781 3.421875 -17 C 2.015625 -18.457031 1.3125 -20.34375 1.3125 -22.65625 C 1.3125 -25.625 2.441406 -27.972656 4.703125 -29.703125 C 6.960938 -31.429688 10.019531 -32.296875 13.875 -32.296875 C 16.175781 -32.296875 18.5 -31.898438 20.84375 -31.109375 C 23.195312 -30.316406 25.253906 -29.226562 27.015625 -27.84375 L 23.46875 -22.921875 C 21.769531 -24.222656 20.101562 -25.1875 18.46875 -25.8125 C 16.832031 -26.4375 15.148438 -26.75 13.421875 -26.75 C 11.660156 -26.75 10.25 -26.421875 9.1875 -25.765625 C 8.125 -25.109375 7.59375 -24.238281 7.59375 -23.15625 C 7.59375 -22.1875 7.941406 -21.425781 8.640625 -20.875 C 9.335938 -20.332031 10.503906 -19.9375 12.140625 -19.6875 L 18.140625 -18.6875 C 21.296875 -18.175781 23.671875 -17.171875 25.265625 -15.671875 C 26.859375 -14.171875 27.65625 -12.191406 27.65625 -9.734375 C 27.65625 -6.640625 26.429688 -4.164062 23.984375 -2.3125 C 21.546875 -0.46875 18.296875 0.453125 14.234375 0.453125 C 11.691406 0.453125 9.179688 -0.03125 6.703125 -1 C 4.234375 -1.96875 2.046875 -3.316406 0.140625 -5.046875 Z M 0.140625 -5.046875 "/></g></g></g><g fill="#0d1a42" fill-opacity="1"><g transform="translate(146.686476, 194.175958)"><g><path d="M 2.859375 0 L 2.859375 -31.84375 L 18.828125 -31.84375 C 20.378906 -31.84375 21.8125 -31.59375 23.125 -31.09375 C 24.445312 -30.59375 25.578125 -29.898438 26.515625 -29.015625 C 27.453125 -28.140625 28.1875 -27.085938 28.71875 -25.859375 C 29.25 -24.628906 29.515625 -23.285156 29.515625 -21.828125 C 29.515625 -20.398438 29.25 -19.085938 28.71875 -17.890625 C 28.1875 -16.691406 27.441406 -15.65625 26.484375 -14.78125 C 25.535156 -13.90625 24.410156 -13.222656 23.109375 -12.734375 C 21.804688 -12.253906 20.378906 -12.015625 18.828125 -12.015625 L 9.453125 -12.015625 L 9.453125 0 Z M 18.109375 -26.15625 L 9.453125 -26.15625 L 9.453125 -17.46875 L 18.109375 -17.46875 C 19.523438 -17.46875 20.664062 -17.859375 21.53125 -18.640625 C 22.394531 -19.429688 22.828125 -20.476562 22.828125 -21.78125 C 22.828125 -23.09375 22.394531 -24.148438 21.53125 -24.953125 C 20.664062 -25.753906 19.523438 -26.15625 18.109375 -26.15625 Z M 18.109375 -26.15625 "/></g></g></g><g fill="#0d1a42" fill-opacity="1"><g transform="translate(184.942171, 194.175958)"><g><path d="M -0.1875 0 L 12.921875 -31.84375 L 20.5625 -31.84375 L 33.46875 0 L 26.328125 0 L 23.109375 -8.375 L 9.96875 -8.375 L 6.6875 0 Z M 12.015625 -13.640625 L 21.109375 -13.640625 L 16.609375 -25.375 Z M 12.015625 -13.640625 "/></g></g></g><g fill="#0d1a42" fill-opacity="1"><g transform="translate(225.517639, 194.175958)"><g><path d="M 18.78125 -5.640625 C 20.445312 -5.640625 22.007812 -5.988281 23.46875 -6.6875 C 24.925781 -7.382812 26.21875 -8.382812 27.34375 -9.6875 L 31.65625 -5.40625 C 30.144531 -3.625 28.210938 -2.203125 25.859375 -1.140625 C 23.503906 -0.078125 21.085938 0.453125 18.609375 0.453125 C 16.210938 0.453125 13.972656 0.03125 11.890625 -0.8125 C 9.816406 -1.664062 8.019531 -2.816406 6.5 -4.265625 C 4.988281 -5.722656 3.800781 -7.453125 2.9375 -9.453125 C 2.070312 -11.460938 1.640625 -13.617188 1.640625 -15.921875 C 1.640625 -18.222656 2.078125 -20.378906 2.953125 -22.390625 C 3.835938 -24.410156 5.035156 -26.148438 6.546875 -27.609375 C 8.066406 -29.066406 9.863281 -30.21875 11.9375 -31.0625 C 14.019531 -31.914062 16.242188 -32.34375 18.609375 -32.34375 C 21.148438 -32.34375 23.617188 -31.800781 26.015625 -30.71875 C 28.410156 -29.644531 30.351562 -28.195312 31.84375 -26.375 L 27.375 -21.96875 C 26.257812 -23.363281 24.941406 -24.429688 23.421875 -25.171875 C 21.910156 -25.921875 20.304688 -26.296875 18.609375 -26.296875 C 17.179688 -26.296875 15.835938 -26.03125 14.578125 -25.5 C 13.316406 -24.96875 12.234375 -24.238281 11.328125 -23.3125 C 10.421875 -22.382812 9.707031 -21.289062 9.1875 -20.03125 C 8.675781 -18.769531 8.421875 -17.398438 8.421875 -15.921875 C 8.421875 -14.460938 8.679688 -13.101562 9.203125 -11.84375 C 9.734375 -10.59375 10.460938 -9.507812 11.390625 -8.59375 C 12.316406 -7.6875 13.410156 -6.96875 14.671875 -6.4375 C 15.929688 -5.90625 17.300781 -5.640625 18.78125 -5.640625 Z M 18.78125 -5.640625 "/></g></g></g><g fill="#0d1a42" fill-opacity="1"><g transform="translate(265.456289, 194.175958)"><g><path d="M 2.859375 0 L 2.859375 -31.84375 L 27.34375 -31.84375 L 27.34375 -26.109375 L 9.453125 -26.109375 L 9.453125 -18.828125 L 21.234375 -18.828125 L 21.234375 -13.28125 L 9.453125 -13.28125 L 9.453125 -5.734375 L 27.515625 -5.734375 L 27.515625 0 Z M 2.859375 0 "/></g></g></g><g fill="#0d1a42" fill-opacity="1"><g transform="translate(302.074465, 194.175958)"><g/></g></g><g fill="#0d1a42" fill-opacity="1"><g transform="translate(318.496864, 194.175958)"><g><path d="M 0.8125 -26.015625 L 0.8125 -31.84375 L 28.84375 -31.84375 L 28.84375 -26.015625 L 18.140625 -26.015625 L 18.140625 0 L 11.546875 0 L 11.546875 -26.015625 Z M 0.8125 -26.015625 "/></g></g></g><g fill="#0d1a42" fill-opacity="1"><g transform="translate(355.433437, 194.175958)"><g><path d="M 2.859375 0 L 2.859375 -31.84375 L 27.34375 -31.84375 L 27.34375 -26.109375 L 9.453125 -26.109375 L 9.453125 -18.828125 L 21.234375 -18.828125 L 21.234375 -13.28125 L 9.453125 -13.28125 L 9.453125 -5.734375 L 27.515625 -5.734375 L 27.515625 0 Z M 2.859375 0 "/></g></g></g><g fill="#0d1a42" fill-opacity="1"><g transform="translate(392.051613, 194.175958)"><g><path d="M 2.859375 0 L 2.859375 -31.84375 L 9.453125 -31.84375 L 9.453125 -5.828125 L 26.875 -5.828125 L 26.875 0 Z M 2.859375 0 "/></g></g></g><g fill="#0d1a42" fill-opacity="1"><g transform="translate(427.896561, 194.175958)"><g><path d="M 2.859375 0 L 2.859375 -31.84375 L 27.34375 -31.84375 L 27.34375 -26.109375 L 9.453125 -26.109375 L 9.453125 -18.828125 L 21.234375 -18.828125 L 21.234375 -13.28125 L 9.453125 -13.28125 L 9.453125 -5.734375 L 27.515625 -5.734375 L 27.515625 0 Z M 2.859375 0 "/></g></g></g><g fill="#0d1a42" fill-opacity="1"><g transform="translate(464.514736, 194.175958)"><g><path d="M 18.78125 -5.640625 C 20.445312 -5.640625 22.007812 -5.988281 23.46875 -6.6875 C 24.925781 -7.382812 26.21875 -8.382812 27.34375 -9.6875 L 31.65625 -5.40625 C 30.144531 -3.625 28.210938 -2.203125 25.859375 -1.140625 C 23.503906 -0.078125 21.085938 0.453125 18.609375 0.453125 C 16.210938 0.453125 13.972656 0.03125 11.890625 -0.8125 C 9.816406 -1.664062 8.019531 -2.816406 6.5 -4.265625 C 4.988281 -5.722656 3.800781 -7.453125 2.9375 -9.453125 C 2.070312 -11.460938 1.640625 -13.617188 1.640625 -15.921875 C 1.640625 -18.222656 2.078125 -20.378906 2.953125 -22.390625 C 3.835938 -24.410156 5.035156 -26.148438 6.546875 -27.609375 C 8.066406 -29.066406 9.863281 -30.21875 11.9375 -31.0625 C 14.019531 -31.914062 16.242188 -32.34375 18.609375 -32.34375 C 21.148438 -32.34375 23.617188 -31.800781 26.015625 -30.71875 C 28.410156 -29.644531 30.351562 -28.195312 31.84375 -26.375 L 27.375 -21.96875 C 26.257812 -23.363281 24.941406 -24.429688 23.421875 -25.171875 C 21.910156 -25.921875 20.304688 -26.296875 18.609375 -26.296875 C 17.179688 -26.296875 15.835938 -26.03125 14.578125 -25.5 C 13.316406 -24.96875 12.234375 -24.238281 11.328125 -23.3125 C 10.421875 -22.382812 9.707031 -21.289062 9.1875 -20.03125 C 8.675781 -18.769531 8.421875 -17.398438 8.421875 -15.921875 C 8.421875 -14.460938 8.679688 -13.101562 9.203125 -11.84375 C 9.734375 -10.59375 10.460938 -9.507812 11.390625 -8.59375 C 12.316406 -7.6875 13.410156 -6.96875 14.671875 -6.4375 C 15.929688 -5.90625 17.300781 -5.640625 18.78125 -5.640625 Z M 18.78125 -5.640625 "/></g></g></g><g fill="#0d1a42" fill-opacity="1"><g transform="translate(504.453386, 194.175958)"><g><path d="M 35.34375 -15.921875 C 35.34375 -13.648438 34.898438 -11.503906 34.015625 -9.484375 C 33.140625 -7.460938 31.953125 -5.71875 30.453125 -4.25 C 28.953125 -2.78125 27.171875 -1.617188 25.109375 -0.765625 C 23.046875 0.078125 20.832031 0.5 18.46875 0.5 C 16.132812 0.5 13.9375 0.078125 11.875 -0.765625 C 9.8125 -1.617188 8.03125 -2.78125 6.53125 -4.25 C 5.03125 -5.71875 3.835938 -7.460938 2.953125 -9.484375 C 2.078125 -11.503906 1.640625 -13.648438 1.640625 -15.921875 C 1.640625 -18.191406 2.078125 -20.332031 2.953125 -22.34375 C 3.835938 -24.363281 5.03125 -26.109375 6.53125 -27.578125 C 8.03125 -29.054688 9.8125 -30.21875 11.875 -31.0625 C 13.9375 -31.914062 16.132812 -32.34375 18.46875 -32.34375 C 20.832031 -32.34375 23.046875 -31.914062 25.109375 -31.0625 C 27.171875 -30.21875 28.953125 -29.054688 30.453125 -27.578125 C 31.953125 -26.109375 33.140625 -24.363281 34.015625 -22.34375 C 34.898438 -20.332031 35.34375 -18.191406 35.34375 -15.921875 Z M 28.5625 -15.921875 C 28.5625 -17.398438 28.300781 -18.769531 27.78125 -20.03125 C 27.269531 -21.289062 26.566406 -22.382812 25.671875 -23.3125 C 24.773438 -24.238281 23.707031 -24.96875 22.46875 -25.5 C 21.226562 -26.03125 19.894531 -26.296875 18.46875 -26.296875 C 17.039062 -26.296875 15.710938 -26.03125 14.484375 -25.5 C 13.253906 -24.96875 12.191406 -24.238281 11.296875 -23.3125 C 10.410156 -22.382812 9.707031 -21.289062 9.1875 -20.03125 C 8.675781 -18.769531 8.421875 -17.398438 8.421875 -15.921875 C 8.421875 -14.460938 8.675781 -13.097656 9.1875 -11.828125 C 9.707031 -10.554688 10.410156 -9.457031 11.296875 -8.53125 C 12.191406 -7.601562 13.253906 -6.875 14.484375 -6.34375 C 15.710938 -5.8125 17.039062 -5.546875 18.46875 -5.546875 C 19.894531 -5.546875 21.226562 -5.8125 22.46875 -6.34375 C 23.707031 -6.875 24.773438 -7.601562 25.671875 -8.53125 C 26.566406 -9.457031 27.269531 -10.554688 27.78125 -11.828125 C 28.300781 -13.097656 28.5625 -14.460938 28.5625 -15.921875 Z M 28.5625 -15.921875 "/></g></g></g><g fill="#0d1a42" fill-opacity="1"><g transform="translate(548.713204, 194.175958)"><g><path d="M 19.96875 -2.28125 L 8.953125 -23.421875 L 8.953125 0 L 2.859375 0 L 2.859375 -31.84375 L 11.328125 -31.84375 L 20.0625 -14.734375 L 28.796875 -31.84375 L 37.25 -31.84375 L 37.25 0 L 31.015625 0 L 31.015625 -23.375 Z M 19.96875 -2.28125 "/></g></g></g><g fill="#0d1a42" fill-opacity="1"><g transform="translate(158.768083, 230.560826)"><g><path d="M 0.625 0 L 0.625 -6.984375 L 2.078125 -6.984375 L 2.078125 0 Z M 0.625 0 "/></g></g></g><g fill="#0d1a42" fill-opacity="1"><g transform="translate(169.461181, 230.560826)"><g><path d="M 4.375 -0.5 L 1.96875 -5.140625 L 1.96875 0 L 0.625 0 L 0.625 -6.984375 L 2.484375 -6.984375 L 4.390625 -3.234375 L 6.3125 -6.984375 L 8.171875 -6.984375 L 8.171875 0 L 6.796875 0 L 6.796875 -5.125 Z M 4.375 -0.5 "/></g></g></g><g fill="#0d1a42" fill-opacity="1"><g transform="translate(186.237581, 230.560826)"><g><path d="M 0.625 0 L 0.625 -6.984375 L 4.125 -6.984375 C 4.46875 -6.984375 4.78125 -6.925781 5.0625 -6.8125 C 5.351562 -6.707031 5.601562 -6.554688 5.8125 -6.359375 C 6.019531 -6.171875 6.179688 -5.941406 6.296875 -5.671875 C 6.410156 -5.398438 6.46875 -5.101562 6.46875 -4.78125 C 6.46875 -4.46875 6.410156 -4.179688 6.296875 -3.921875 C 6.179688 -3.660156 6.019531 -3.429688 5.8125 -3.234375 C 5.601562 -3.046875 5.351562 -2.894531 5.0625 -2.78125 C 4.78125 -2.675781 4.46875 -2.625 4.125 -2.625 L 2.078125 -2.625 L 2.078125 0 Z M 3.96875 -5.734375 L 2.078125 -5.734375 L 2.078125 -3.828125 L 3.96875 -3.828125 C 4.28125 -3.828125 4.53125 -3.910156 4.71875 -4.078125 C 4.90625 -4.253906 5 -4.488281 5 -4.78125 C 5 -5.0625 4.90625 -5.289062 4.71875 -5.46875 C 4.53125 -5.644531 4.28125 -5.734375 3.96875 -5.734375 Z M 3.96875 -5.734375 "/></g></g></g><g fill="#0d1a42" fill-opacity="1"><g transform="translate(201.009479, 230.560826)"><g><path d="M 0.625 0 L 0.625 -6.984375 L 4.03125 -6.984375 C 4.382812 -6.984375 4.707031 -6.925781 5 -6.8125 C 5.300781 -6.707031 5.554688 -6.5625 5.765625 -6.375 C 5.984375 -6.1875 6.148438 -5.957031 6.265625 -5.6875 C 6.390625 -5.425781 6.453125 -5.132812 6.453125 -4.8125 C 6.453125 -4.375 6.328125 -3.984375 6.078125 -3.640625 C 5.828125 -3.296875 5.492188 -3.039062 5.078125 -2.875 L 6.625 0 L 5.015625 0 L 3.65625 -2.671875 L 2.078125 -2.671875 L 2.078125 0 Z M 3.90625 -5.734375 L 2.078125 -5.734375 L 2.078125 -3.859375 L 3.90625 -3.859375 C 4.226562 -3.859375 4.488281 -3.941406 4.6875 -4.109375 C 4.882812 -4.285156 4.984375 -4.515625 4.984375 -4.796875 C 4.984375 -5.078125 4.882812 -5.300781 4.6875 -5.46875 C 4.488281 -5.644531 4.226562 -5.734375 3.90625 -5.734375 Z M 3.90625 -5.734375 "/></g></g></g><g fill="#0d1a42" fill-opacity="1"><g transform="translate(215.761431, 230.560826)"><g><path d="M 0.625 0 L 0.625 -6.984375 L 5.984375 -6.984375 L 5.984375 -5.71875 L 2.078125 -5.71875 L 2.078125 -4.125 L 4.65625 -4.125 L 4.65625 -2.90625 L 2.078125 -2.90625 L 2.078125 -1.25 L 6.03125 -1.25 L 6.03125 0 Z M 0.625 0 "/></g></g></g><g fill="#0d1a42" fill-opacity="1"><g transform="translate(230.174313, 230.560826)"><g><path d="M 0.03125 -1.109375 L 0.859375 -2.140625 C 1.265625 -1.785156 1.65625 -1.523438 2.03125 -1.359375 C 2.40625 -1.203125 2.800781 -1.125 3.21875 -1.125 C 3.65625 -1.125 4 -1.203125 4.25 -1.359375 C 4.507812 -1.523438 4.640625 -1.738281 4.640625 -2 C 4.640625 -2.238281 4.550781 -2.425781 4.375 -2.5625 C 4.195312 -2.695312 3.90625 -2.796875 3.5 -2.859375 L 2.109375 -3.09375 C 1.515625 -3.195312 1.0625 -3.40625 0.75 -3.71875 C 0.445312 -4.039062 0.296875 -4.457031 0.296875 -4.96875 C 0.296875 -5.613281 0.539062 -6.125 1.03125 -6.5 C 1.53125 -6.882812 2.203125 -7.078125 3.046875 -7.078125 C 3.546875 -7.078125 4.050781 -6.988281 4.5625 -6.8125 C 5.082031 -6.644531 5.535156 -6.40625 5.921875 -6.09375 L 5.140625 -5.03125 C 4.765625 -5.3125 4.398438 -5.519531 4.046875 -5.65625 C 3.691406 -5.789062 3.320312 -5.859375 2.9375 -5.859375 C 2.550781 -5.859375 2.242188 -5.785156 2.015625 -5.640625 C 1.785156 -5.503906 1.671875 -5.316406 1.671875 -5.078125 C 1.671875 -4.859375 1.742188 -4.6875 1.890625 -4.5625 C 2.046875 -4.445312 2.300781 -4.363281 2.65625 -4.3125 L 3.984375 -4.09375 C 4.671875 -3.976562 5.1875 -3.753906 5.53125 -3.421875 C 5.882812 -3.097656 6.0625 -2.671875 6.0625 -2.140625 C 6.0625 -1.453125 5.789062 -0.90625 5.25 -0.5 C 4.71875 -0.101562 4.007812 0.09375 3.125 0.09375 C 2.5625 0.09375 2.007812 -0.0078125 1.46875 -0.21875 C 0.925781 -0.425781 0.445312 -0.722656 0.03125 -1.109375 Z M 0.03125 -1.109375 "/></g></g></g><g fill="#0d1a42" fill-opacity="1"><g transform="translate(244.457558, 230.560826)"><g><path d="M 0.03125 -1.109375 L 0.859375 -2.140625 C 1.265625 -1.785156 1.65625 -1.523438 2.03125 -1.359375 C 2.40625 -1.203125 2.800781 -1.125 3.21875 -1.125 C 3.65625 -1.125 4 -1.203125 4.25 -1.359375 C 4.507812 -1.523438 4.640625 -1.738281 4.640625 -2 C 4.640625 -2.238281 4.550781 -2.425781 4.375 -2.5625 C 4.195312 -2.695312 3.90625 -2.796875 3.5 -2.859375 L 2.109375 -3.09375 C 1.515625 -3.195312 1.0625 -3.40625 0.75 -3.71875 C 0.445312 -4.039062 0.296875 -4.457031 0.296875 -4.96875 C 0.296875 -5.613281 0.539062 -6.125 1.03125 -6.5 C 1.53125 -6.882812 2.203125 -7.078125 3.046875 -7.078125 C 3.546875 -7.078125 4.050781 -6.988281 4.5625 -6.8125 C 5.082031 -6.644531 5.535156 -6.40625 5.921875 -6.09375 L 5.140625 -5.03125 C 4.765625 -5.3125 4.398438 -5.519531 4.046875 -5.65625 C 3.691406 -5.789062 3.320312 -5.859375 2.9375 -5.859375 C 2.550781 -5.859375 2.242188 -5.785156 2.015625 -5.640625 C 1.785156 -5.503906 1.671875 -5.316406 1.671875 -5.078125 C 1.671875 -4.859375 1.742188 -4.6875 1.890625 -4.5625 C 2.046875 -4.445312 2.300781 -4.363281 2.65625 -4.3125 L 3.984375 -4.09375 C 4.671875 -3.976562 5.1875 -3.753906 5.53125 -3.421875 C 5.882812 -3.097656 6.0625 -2.671875 6.0625 -2.140625 C 6.0625 -1.453125 5.789062 -0.90625 5.25 -0.5 C 4.71875 -0.101562 4.007812 0.09375 3.125 0.09375 C 2.5625 0.09375 2.007812 -0.0078125 1.46875 -0.21875 C 0.925781 -0.425781 0.445312 -0.722656 0.03125 -1.109375 Z M 0.03125 -1.109375 "/></g></g></g><g fill="#0d1a42" fill-opacity="1"><g transform="translate(258.740802, 230.560826)"><g><path d="M 0.625 0 L 0.625 -6.984375 L 2.078125 -6.984375 L 2.078125 0 Z M 0.625 0 "/></g></g></g><g fill="#0d1a42" fill-opacity="1"><g transform="translate(269.433898, 230.560826)"><g><path d="M 7.75 -3.484375 C 7.75 -2.984375 7.648438 -2.515625 7.453125 -2.078125 C 7.265625 -1.640625 7.003906 -1.257812 6.671875 -0.9375 C 6.347656 -0.613281 5.957031 -0.359375 5.5 -0.171875 C 5.050781 0.015625 4.566406 0.109375 4.046875 0.109375 C 3.535156 0.109375 3.050781 0.015625 2.59375 -0.171875 C 2.144531 -0.359375 1.753906 -0.613281 1.421875 -0.9375 C 1.097656 -1.257812 0.835938 -1.640625 0.640625 -2.078125 C 0.453125 -2.515625 0.359375 -2.984375 0.359375 -3.484375 C 0.359375 -3.984375 0.453125 -4.453125 0.640625 -4.890625 C 0.835938 -5.335938 1.097656 -5.722656 1.421875 -6.046875 C 1.753906 -6.367188 2.144531 -6.625 2.59375 -6.8125 C 3.050781 -7 3.535156 -7.09375 4.046875 -7.09375 C 4.566406 -7.09375 5.050781 -7 5.5 -6.8125 C 5.957031 -6.625 6.347656 -6.367188 6.671875 -6.046875 C 7.003906 -5.722656 7.265625 -5.335938 7.453125 -4.890625 C 7.648438 -4.453125 7.75 -3.984375 7.75 -3.484375 Z M 6.265625 -3.484375 C 6.265625 -3.816406 6.207031 -4.117188 6.09375 -4.390625 C 5.976562 -4.671875 5.820312 -4.910156 5.625 -5.109375 C 5.425781 -5.304688 5.191406 -5.460938 4.921875 -5.578125 C 4.648438 -5.703125 4.359375 -5.765625 4.046875 -5.765625 C 3.734375 -5.765625 3.441406 -5.703125 3.171875 -5.578125 C 2.898438 -5.460938 2.664062 -5.304688 2.46875 -5.109375 C 2.28125 -4.910156 2.128906 -4.671875 2.015625 -4.390625 C 1.898438 -4.117188 1.84375 -3.816406 1.84375 -3.484375 C 1.84375 -3.171875 1.898438 -2.875 2.015625 -2.59375 C 2.128906 -2.3125 2.28125 -2.066406 2.46875 -1.859375 C 2.664062 -1.660156 2.898438 -1.503906 3.171875 -1.390625 C 3.441406 -1.273438 3.734375 -1.21875 4.046875 -1.21875 C 4.359375 -1.21875 4.648438 -1.273438 4.921875 -1.390625 C 5.191406 -1.503906 5.425781 -1.660156 5.625 -1.859375 C 5.820312 -2.066406 5.976562 -2.3125 6.09375 -2.59375 C 6.207031 -2.875 6.265625 -3.171875 6.265625 -3.484375 Z M 6.265625 -3.484375 "/></g></g></g><g fill="#0d1a42" fill-opacity="1"><g transform="translate(285.522184, 230.560826)"><g><path d="M 0.625 -6.984375 L 2 -6.984375 L 5.46875 -2.46875 L 5.46875 -6.984375 L 6.828125 -6.984375 L 6.828125 0 L 5.546875 0 L 2 -4.671875 L 2 0 L 0.625 0 Z M 0.625 -6.984375 "/></g></g></g><g fill="#0d1a42" fill-opacity="1"><g transform="translate(300.972222, 230.560826)"><g/></g></g><g fill="#0d1a42" fill-opacity="1"><g transform="translate(310.95726, 230.560826)"><g><path d="M 0.625 0 L 0.625 -6.984375 L 5.984375 -6.984375 L 5.984375 -5.71875 L 2.078125 -5.71875 L 2.078125 -4.125 L 4.65625 -4.125 L 4.65625 -2.90625 L 2.078125 -2.90625 L 2.078125 -1.25 L 6.03125 -1.25 L 6.03125 0 Z M 0.625 0 "/></g></g></g><g fill="#0d1a42" fill-opacity="1"><g transform="translate(325.370143, 230.560826)"><g><path d="M 0.171875 -5.703125 L 0.171875 -6.984375 L 6.3125 -6.984375 L 6.3125 -5.703125 L 3.984375 -5.703125 L 3.984375 0 L 2.53125 0 L 2.53125 -5.703125 Z M 0.171875 -5.703125 "/></g></g></g><g fill="#0d1a42" fill-opacity="1"><g transform="translate(339.852834, 230.560826)"><g/></g></g><g fill="#0d1a42" fill-opacity="1"><g transform="translate(349.837873, 230.560826)"><g><path d="M 0.171875 -5.703125 L 0.171875 -6.984375 L 6.3125 -6.984375 L 6.3125 -5.703125 L 3.984375 -5.703125 L 3.984375 0 L 2.53125 0 L 2.53125 -5.703125 Z M 0.171875 -5.703125 "/></g></g></g><g fill="#0d1a42" fill-opacity="1"><g transform="translate(364.320576, 230.560826)"><g><path d="M 0.625 0 L 0.625 -6.984375 L 5.984375 -6.984375 L 5.984375 -5.71875 L 2.078125 -5.71875 L 2.078125 -4.125 L 4.65625 -4.125 L 4.65625 -2.90625 L 2.078125 -2.90625 L 2.078125 -1.25 L 6.03125 -1.25 L 6.03125 0 Z M 0.625 0 "/></g></g></g><g fill="#0d1a42" fill-opacity="1"><g transform="translate(378.73347, 230.560826)"><g><path d="M 4.109375 -1.234375 C 4.484375 -1.234375 4.828125 -1.304688 5.140625 -1.453125 C 5.460938 -1.609375 5.742188 -1.832031 5.984375 -2.125 L 6.9375 -1.1875 C 6.601562 -0.789062 6.175781 -0.476562 5.65625 -0.25 C 5.144531 -0.0195312 4.617188 0.09375 4.078125 0.09375 C 3.554688 0.09375 3.066406 0.00390625 2.609375 -0.171875 C 2.148438 -0.359375 1.753906 -0.613281 1.421875 -0.9375 C 1.085938 -1.257812 0.828125 -1.640625 0.640625 -2.078125 C 0.453125 -2.515625 0.359375 -2.984375 0.359375 -3.484375 C 0.359375 -3.992188 0.453125 -4.46875 0.640625 -4.90625 C 0.835938 -5.351562 1.101562 -5.734375 1.4375 -6.046875 C 1.769531 -6.367188 2.160156 -6.625 2.609375 -6.8125 C 3.066406 -7 3.554688 -7.09375 4.078125 -7.09375 C 4.640625 -7.09375 5.179688 -6.972656 5.703125 -6.734375 C 6.222656 -6.492188 6.648438 -6.175781 6.984375 -5.78125 L 6 -4.8125 C 5.75 -5.125 5.457031 -5.359375 5.125 -5.515625 C 4.800781 -5.679688 4.453125 -5.765625 4.078125 -5.765625 C 3.765625 -5.765625 3.46875 -5.703125 3.1875 -5.578125 C 2.914062 -5.460938 2.679688 -5.304688 2.484375 -5.109375 C 2.285156 -4.910156 2.128906 -4.671875 2.015625 -4.390625 C 1.898438 -4.117188 1.84375 -3.816406 1.84375 -3.484375 C 1.84375 -3.171875 1.898438 -2.875 2.015625 -2.59375 C 2.128906 -2.320312 2.285156 -2.082031 2.484375 -1.875 C 2.691406 -1.675781 2.929688 -1.519531 3.203125 -1.40625 C 3.484375 -1.289062 3.785156 -1.234375 4.109375 -1.234375 Z M 4.109375 -1.234375 "/></g></g></g><g fill="#0d1a42" fill-opacity="1"><g transform="translate(393.874369, 230.560826)"><g><path d="M 0.625 0 L 0.625 -6.984375 L 2.078125 -6.984375 L 2.078125 -4.171875 L 5.28125 -4.171875 L 5.28125 -6.984375 L 6.734375 -6.984375 L 6.734375 0 L 5.28125 0 L 5.28125 -2.84375 L 2.078125 -2.84375 L 2.078125 0 Z M 0.625 0 "/></g></g></g><g fill="#0d1a42" fill-opacity="1"><g transform="translate(409.224694, 230.560826)"><g><path d="M 0.625 -6.984375 L 2 -6.984375 L 5.46875 -2.46875 L 5.46875 -6.984375 L 6.828125 -6.984375 L 6.828125 0 L 5.546875 0 L 2 -4.671875 L 2 0 L 0.625 0 Z M 0.625 -6.984375 "/></g></g></g><g fill="#0d1a42" fill-opacity="1"><g transform="translate(424.674743, 230.560826)"><g><path d="M 7.75 -3.484375 C 7.75 -2.984375 7.648438 -2.515625 7.453125 -2.078125 C 7.265625 -1.640625 7.003906 -1.257812 6.671875 -0.9375 C 6.347656 -0.613281 5.957031 -0.359375 5.5 -0.171875 C 5.050781 0.015625 4.566406 0.109375 4.046875 0.109375 C 3.535156 0.109375 3.050781 0.015625 2.59375 -0.171875 C 2.144531 -0.359375 1.753906 -0.613281 1.421875 -0.9375 C 1.097656 -1.257812 0.835938 -1.640625 0.640625 -2.078125 C 0.453125 -2.515625 0.359375 -2.984375 0.359375 -3.484375 C 0.359375 -3.984375 0.453125 -4.453125 0.640625 -4.890625 C 0.835938 -5.335938 1.097656 -5.722656 1.421875 -6.046875 C 1.753906 -6.367188 2.144531 -6.625 2.59375 -6.8125 C 3.050781 -7 3.535156 -7.09375 4.046875 -7.09375 C 4.566406 -7.09375 5.050781 -7 5.5 -6.8125 C 5.957031 -6.625 6.347656 -6.367188 6.671875 -6.046875 C 7.003906 -5.722656 7.265625 -5.335938 7.453125 -4.890625 C 7.648438 -4.453125 7.75 -3.984375 7.75 -3.484375 Z M 6.265625 -3.484375 C 6.265625 -3.816406 6.207031 -4.117188 6.09375 -4.390625 C 5.976562 -4.671875 5.820312 -4.910156 5.625 -5.109375 C 5.425781 -5.304688 5.191406 -5.460938 4.921875 -5.578125 C 4.648438 -5.703125 4.359375 -5.765625 4.046875 -5.765625 C 3.734375 -5.765625 3.441406 -5.703125 3.171875 -5.578125 C 2.898438 -5.460938 2.664062 -5.304688 2.46875 -5.109375 C 2.28125 -4.910156 2.128906 -4.671875 2.015625 -4.390625 C 1.898438 -4.117188 1.84375 -3.816406 1.84375 -3.484375 C 1.84375 -3.171875 1.898438 -2.875 2.015625 -2.59375 C 2.128906 -2.3125 2.28125 -2.066406 2.46875 -1.859375 C 2.664062 -1.660156 2.898438 -1.503906 3.171875 -1.390625 C 3.441406 -1.273438 3.734375 -1.21875 4.046875 -1.21875 C 4.359375 -1.21875 4.648438 -1.273438 4.921875 -1.390625 C 5.191406 -1.503906 5.425781 -1.660156 5.625 -1.859375 C 5.820312 -2.066406 5.976562 -2.3125 6.09375 -2.59375 C 6.207031 -2.875 6.265625 -3.171875 6.265625 -3.484375 Z M 6.265625 -3.484375 "/></g></g></g><g fill="#0d1a42" fill-opacity="1"><g transform="translate(440.76303, 230.560826)"><g><path d="M 0.625 0 L 0.625 -6.984375 L 2.078125 -6.984375 L 2.078125 -1.28125 L 5.890625 -1.28125 L 5.890625 0 Z M 0.625 0 "/></g></g></g><g fill="#0d1a42" fill-opacity="1"><g transform="translate(455.006391, 230.560826)"><g><path d="M 7.75 -3.484375 C 7.75 -2.984375 7.648438 -2.515625 7.453125 -2.078125 C 7.265625 -1.640625 7.003906 -1.257812 6.671875 -0.9375 C 6.347656 -0.613281 5.957031 -0.359375 5.5 -0.171875 C 5.050781 0.015625 4.566406 0.109375 4.046875 0.109375 C 3.535156 0.109375 3.050781 0.015625 2.59375 -0.171875 C 2.144531 -0.359375 1.753906 -0.613281 1.421875 -0.9375 C 1.097656 -1.257812 0.835938 -1.640625 0.640625 -2.078125 C 0.453125 -2.515625 0.359375 -2.984375 0.359375 -3.484375 C 0.359375 -3.984375 0.453125 -4.453125 0.640625 -4.890625 C 0.835938 -5.335938 1.097656 -5.722656 1.421875 -6.046875 C 1.753906 -6.367188 2.144531 -6.625 2.59375 -6.8125 C 3.050781 -7 3.535156 -7.09375 4.046875 -7.09375 C 4.566406 -7.09375 5.050781 -7 5.5 -6.8125 C 5.957031 -6.625 6.347656 -6.367188 6.671875 -6.046875 C 7.003906 -5.722656 7.265625 -5.335938 7.453125 -4.890625 C 7.648438 -4.453125 7.75 -3.984375 7.75 -3.484375 Z M 6.265625 -3.484375 C 6.265625 -3.816406 6.207031 -4.117188 6.09375 -4.390625 C 5.976562 -4.671875 5.820312 -4.910156 5.625 -5.109375 C 5.425781 -5.304688 5.191406 -5.460938 4.921875 -5.578125 C 4.648438 -5.703125 4.359375 -5.765625 4.046875 -5.765625 C 3.734375 -5.765625 3.441406 -5.703125 3.171875 -5.578125 C 2.898438 -5.460938 2.664062 -5.304688 2.46875 -5.109375 C 2.28125 -4.910156 2.128906 -4.671875 2.015625 -4.390625 C 1.898438 -4.117188 1.84375 -3.816406 1.84375 -3.484375 C 1.84375 -3.171875 1.898438 -2.875 2.015625 -2.59375 C 2.128906 -2.3125 2.28125 -2.066406 2.46875 -1.859375 C 2.664062 -1.660156 2.898438 -1.503906 3.171875 -1.390625 C 3.441406 -1.273438 3.734375 -1.21875 4.046875 -1.21875 C 4.359375 -1.21875 4.648438 -1.273438 4.921875 -1.390625 C 5.191406 -1.503906 5.425781 -1.660156 5.625 -1.859375 C 5.820312 -2.066406 5.976562 -2.3125 6.09375 -2.59375 C 6.207031 -2.875 6.265625 -3.171875 6.265625 -3.484375 Z M 6.265625 -3.484375 "/></g></g></g><g fill="#0d1a42" fill-opacity="1"><g transform="translate(471.094678, 230.560826)"><g><path d="M 7.5625 -3.484375 C 7.5625 -2.972656 7.472656 -2.492188 7.296875 -2.046875 C 7.117188 -1.609375 6.875 -1.226562 6.5625 -0.90625 C 6.25 -0.59375 5.878906 -0.34375 5.453125 -0.15625 C 5.023438 0.0195312 4.5625 0.109375 4.0625 0.109375 C 3.539062 0.109375 3.050781 0.015625 2.59375 -0.171875 C 2.144531 -0.359375 1.753906 -0.613281 1.421875 -0.9375 C 1.097656 -1.257812 0.835938 -1.640625 0.640625 -2.078125 C 0.453125 -2.515625 0.359375 -2.984375 0.359375 -3.484375 C 0.359375 -3.992188 0.453125 -4.46875 0.640625 -4.90625 C 0.828125 -5.34375 1.082031 -5.722656 1.40625 -6.046875 C 1.738281 -6.367188 2.128906 -6.625 2.578125 -6.8125 C 3.035156 -7 3.519531 -7.09375 4.03125 -7.09375 C 4.613281 -7.09375 5.160156 -6.972656 5.671875 -6.734375 C 6.179688 -6.503906 6.601562 -6.1875 6.9375 -5.78125 L 5.9375 -4.859375 C 5.6875 -5.148438 5.398438 -5.375 5.078125 -5.53125 C 4.753906 -5.6875 4.40625 -5.765625 4.03125 -5.765625 C 3.71875 -5.765625 3.425781 -5.703125 3.15625 -5.578125 C 2.894531 -5.460938 2.664062 -5.304688 2.46875 -5.109375 C 2.269531 -4.910156 2.113281 -4.671875 2 -4.390625 C 1.894531 -4.117188 1.84375 -3.816406 1.84375 -3.484375 C 1.84375 -3.160156 1.898438 -2.859375 2.015625 -2.578125 C 2.128906 -2.296875 2.285156 -2.054688 2.484375 -1.859375 C 2.679688 -1.660156 2.914062 -1.5 3.1875 -1.375 C 3.46875 -1.257812 3.765625 -1.203125 4.078125 -1.203125 C 4.566406 -1.203125 4.988281 -1.335938 5.34375 -1.609375 C 5.695312 -1.890625 5.921875 -2.238281 6.015625 -2.65625 L 3.953125 -2.65625 L 3.953125 -3.921875 L 7.5625 -3.921875 Z M 7.5625 -3.484375 "/></g></g></g><g fill="#0d1a42" fill-opacity="1"><g transform="translate(486.993495, 230.560826)"><g><path d="M 0.625 0 L 0.625 -6.984375 L 2.078125 -6.984375 L 2.078125 0 Z M 0.625 0 "/></g></g></g><g fill="#0d1a42" fill-opacity="1"><g transform="translate(497.686602, 230.560826)"><g><path d="M 0.625 0 L 0.625 -6.984375 L 5.984375 -6.984375 L 5.984375 -5.71875 L 2.078125 -5.71875 L 2.078125 -4.125 L 4.65625 -4.125 L 4.65625 -2.90625 L 2.078125 -2.90625 L 2.078125 -1.25 L 6.03125 -1.25 L 6.03125 0 Z M 0.625 0 "/></g></g></g></svg>